<?xml version="1.0" encoding="UTF-8"?>
<svg width="1e3pt" height="1e3pt" version="1.1" viewBox="0 0 1e3 1e3" xmlns="http://www.w3.org/2000/svg">
 <rect width="1e3" height="1e3" fill="#b26b32"/>
 <text transform="scale(.96072 1.0409)" x="70.520691" y="840.62177" font-family="Georgia" font-size="247.68px" font-weight="bold" letter-spacing="-12.427px" stroke-width=".71446px" style="line-height:17.86156845px" xml:space="preserve"><tspan x="70.520691" y="840.62177" fill="#440e05" font-family="Georgia" font-weight="bold" letter-spacing="-12.427px" stroke-width=".71446px">Gauche</tspan></text>
 <text x="105.95312" y="939.23126" font-family="'Arial Black'" font-size="48px" letter-spacing="-2.0625px" stroke-width=".75px" style="line-height:18.75px" xml:space="preserve"><tspan x="105.95312" y="939.23126" fill="#440e05" font-family="'Arial Black'" font-weight="bold" letter-spacing="-2.0625px" stroke-width=".75px">An R<tspan baseline-shift="super" fill="#440e05" font-size="65%" letter-spacing="-2.0625px">7</tspan>RS Scheme implementation </tspan></text>
 <path d="m384.89 68.37c-77.985.000157-141.21 63.222-141.21 141.21h.22412c.12613 33.956 27.686 61.417 61.642 61.421 34.048-.00055 61.65-27.603 61.649-61.651-.0316-21.476-11.237-41.388-29.578-52.56l47.606-88.365c25.587 79.475 54.523 168.11 78.317 241.5l-244.29 317.14h97.38l177.07-224.14 40.696 125.5.0146.0103c10.367 33.202 32.866 61.922 63.86 79.815 21.734 12.548 45.99 18.823 70.246 18.824h.001c-49.004-152.98-103.52-319.27-147.25-454.2-16.166-60.18-71.092-104.48-136.37-104.48zm362.62 356.68c-33.966 0-61.5 27.534-61.5 61.5.0296 21.146 10.921 40.794 28.838 52.024l-46.339 88.478c24.257 0 48.515-6.2742 70.251-18.824 43.471-25.098 70.25-71.48 70.25-121.67v-.006c0-33.966-27.534-61.5-61.5-61.5z" fill="#440e05" stroke-width=".75"/>
</svg>
